<?xml version="1.0" standalone="no"?>
<!DOCTYPE svg PUBLIC "-//W3C//DTD SVG 20010904//EN"
 "http://www.w3.org/TR/2001/REC-SVG-20010904/DTD/svg10.dtd">
<svg version="1.0" xmlns="http://www.w3.org/2000/svg"
 width="137.000000pt" height="115.000000pt" viewBox="0 0 137.000000 115.000000"
 preserveAspectRatio="xMidYMid meet">

<g transform="translate(0.000000,115.000000) scale(0.100000,-0.100000)"
fill="#000000" stroke="none">
<path d="M748 956 c-7 -39 -4 -55 8 -44 3 3 4 23 2 44 l-3 39 -7 -39z"/>
<path d="M733 820 c-7 -41 -18 -114 -24 -162 -11 -83 -13 -87 -47 -110 -21
-13 -39 -35 -43 -52 -10 -37 12 -92 40 -101 17 -5 21 -14 21 -51 0 -55 16 -58
25 -3 5 29 13 43 30 49 64 24 72 108 15 160 -15 13 -16 27 -8 130 4 63 7 138
6 165 l-3 50 -12 -75z m-3 -331 c14 -26 -4 -51 -34 -47 -24 4 -33 33 -16 53
17 21 37 19 50 -6z"/>
<path d="M146 633 c-53 -162 -16 -369 91 -515 l45 -60 48 47 49 48 -34 48
c-59 79 -85 164 -84 272 0 50 6 108 13 127 l13 35 -51 22 c-28 12 -56 22 -63
23 -6 0 -18 -21 -27 -47z"/>
<path d="M609 208 c-11 -8 -11 -9 3 -4 21 6 36 -13 18 -24 -9 -5 -9 -9 -1 -14
18 -11 13 -24 -11 -29 -21 -5 -21 -5 2 -4 20 2 24 8 26 39 3 39 -12 54 -37 36z"/>
<path d="M693 213 c-8 -3 -13 -22 -13 -45 0 -35 2 -39 23 -36 17 2 23 10 25
39 3 37 -9 51 -35 42z m25 -40 c-4 -39 -28 -42 -28 -4 0 21 5 31 16 31 11 0
14 -8 12 -27z"/>
<path d="M767 213 c-16 -15 -6 -43 14 -43 12 0 19 -5 16 -12 -2 -7 -12 -12
-21 -12 -9 1 -16 -3 -16 -8 0 -5 10 -8 22 -6 30 4 37 38 9 45 -26 7 -27 19 -3
32 14 9 15 10 1 11 -9 0 -19 -3 -22 -7z"/>
</g>
</svg>
